<svg width="32" height="32" viewBox="0 0 32 32" fill="none" xmlns="http://www.w3.org/2000/svg">
<g id="Group">
<path id="Vector" d="M16 31.9842C24.753 31.9842 32 24.7251 32 15.9921C32 7.2435 24.7373 0 15.9843 0C7.24707 0 0 7.2435 0 15.9921C0 24.7251 7.26276 31.9842 16 31.9842Z" fill="white"/>
<path id="Vector_2" d="M11.4352 22.2949C10.6352 22.2949 10.2744 21.8558 10.2744 21.2288V10.7241C10.2744 10.1126 10.6352 9.67365 11.4352 9.67365H13.0195C13.8352 9.67365 14.196 10.1126 14.196 10.7241V21.2288C14.196 21.8558 13.8352 22.2949 13.0195 22.2949H11.4352ZM19.0117 22.2949C18.1961 22.2949 17.8352 21.8558 17.8352 21.2288V10.7241C17.8352 10.1126 18.1961 9.67365 19.0117 9.67365H20.596C21.3804 9.67365 21.7411 10.1126 21.7411 10.7241V21.2288C21.7411 21.8558 21.3804 22.2949 20.596 22.2949H19.0117Z" fill="black"/>
</g>
</svg>
